<svg width="400" height="400" viewBox="0 0 400 400" fill="none" xmlns="http://www.w3.org/2000/svg">
<rect width="400" height="400" rx="1" fill="#D9D9D9"/>
<rect width="400" height="400" rx="1" fill="white"/>
<path fill-rule="evenodd" clip-rule="evenodd" d="M231.2 192.465C225.133 185.065 209.533 173.065 209.533 166.865V143.198H212.8C213.533 143.198 214.133 142.598 214.133 141.865V138.798C214.133 138.065 213.533 137.465 212.8 137.465H184.733C184 137.465 183.4 138.065 183.4 138.798V141.865C183.4 142.598 184 143.198 184.733 143.198H188.066V166.865C188.066 173.065 172.466 185.065 166.4 192.465C160.333 199.865 152.8 207.532 152.8 218.798C152.8 230.065 163.533 235.798 176.066 235.798H221.533C234.133 235.798 244.8 229.998 244.8 218.798C244.866 207.532 237.266 199.865 231.2 192.465Z" fill="#2A337B"/>
<path d="M212.934 113.134C216.534 105.401 228.867 99.7344 228.867 99.7344C208.8 103.534 199.467 126.401 199.467 126.401C194.734 115.868 183.2 117.601 183.2 117.601C198.134 122.801 196.067 138.001 196.067 138.001H201.267C206.467 100.868 247.134 119.401 247.134 119.401C232.734 107.868 212.934 113.134 212.934 113.134Z" fill="#2A337B"/>
<path fill-rule="evenodd" clip-rule="evenodd" d="M270.067 110.001C270.067 110.001 265.6 108.734 263.6 108.067C261.6 107.401 257.333 106.201 254.133 108.934C250.933 111.667 249.267 115.334 249.267 115.334C249.267 115.334 254.333 120.801 261.133 119.534C267.933 118.267 270.067 110.001 270.067 110.001Z" fill="#35974A"/>
<path fill-rule="evenodd" clip-rule="evenodd" d="M252.4 99.6668C259.133 98.4001 261.333 90.1335 261.333 90.1335C261.333 90.1335 256.867 88.8668 254.867 88.2001C252.867 87.5335 248.6 86.3335 245.4 89.0668C242.2 91.8001 240.533 95.4668 240.533 95.4668C240.533 95.4668 245.6 100.933 252.4 99.6668Z" fill="#35974A"/>
<path fill-rule="evenodd" clip-rule="evenodd" d="M251 124.667C247.667 123.001 244.134 122.801 244.134 122.801C244.134 122.801 241.333 128.734 244.6 133.801C247.867 138.867 255.4 138.001 255.4 138.001C255.4 138.001 254.933 134.001 254.867 132.134C254.8 130.267 254.333 126.401 251 124.667Z" fill="#35974A"/>
<path fill-rule="evenodd" clip-rule="evenodd" d="M240.067 88.6664C242.334 86.5997 241.867 83.3997 241.534 81.8664C241.2 80.3997 240.734 77.0664 240.734 77.0664C240.734 77.0664 234.6 77.9331 233.134 82.7331C231.6 87.5331 235.067 91.6664 235.067 91.6664C235.067 91.6664 237.8 90.7331 240.067 88.6664Z" fill="#35974A"/>
<path fill-rule="evenodd" clip-rule="evenodd" d="M229.133 91.5315C231.067 88.1982 229.267 84.5315 228.333 82.8648C227.4 81.1982 225.533 77.4648 225.533 77.4648C225.533 77.4648 218.533 80.8648 218.533 87.1315C218.533 93.3982 224.267 96.9982 224.267 96.9982C224.267 96.9982 227.2 94.8648 229.133 91.5315Z" fill="#35974A"/>
<path fill-rule="evenodd" clip-rule="evenodd" d="M210.267 87.4648C210.267 87.4648 204.667 90.8648 205.2 96.1315C205.733 101.398 210.867 103.932 210.867 103.932C210.867 103.932 213.2 101.932 214.533 98.9315C215.867 95.9982 214.067 93.0648 213.133 91.7315C212.133 90.4648 210.267 87.4648 210.267 87.4648Z" fill="#35974A"/>
<path fill-rule="evenodd" clip-rule="evenodd" d="M200.933 99.5312C200.933 99.5312 194.4 100.065 192.533 104.998C190.667 109.931 194.067 114.531 194.067 114.531C194.067 114.531 197 113.731 199.533 111.731C202.067 109.665 201.733 106.265 201.533 104.665C201.267 103.131 200.933 99.5312 200.933 99.5312Z" fill="#35974A"/>
<path fill-rule="evenodd" clip-rule="evenodd" d="M176.933 111.867C174.933 109.333 171.533 109.533 169.933 109.733C168.333 109.933 164.8 110.2 164.8 110.2C164.8 110.2 165.2 116.733 170.066 118.733C174.933 120.733 179.6 117.4 179.6 117.4C179.6 117.4 178.866 114.4 176.933 111.867Z" fill="#35974A"/>
<path fill-rule="evenodd" clip-rule="evenodd" d="M178.533 122.798C175.533 124.132 174.933 127.532 174.8 129.132C174.6 130.732 174 134.265 174 134.265C174 134.265 180.467 135.465 183.6 131.198C186.733 126.932 184.6 121.532 184.6 121.532C184.6 121.532 181.533 121.465 178.533 122.798Z" fill="#35974A"/>
<path fill-rule="evenodd" clip-rule="evenodd" d="M182.4 98.0664C182.4 98.0664 177.334 102.333 178.667 107.533C180 112.733 185.467 114.533 185.467 114.533C185.467 114.533 187.467 112.133 188.334 109C189.2 105.8 187 103.2 185.867 102C184.734 100.8 182.4 98.0664 182.4 98.0664Z" fill="#35974A"/>
<path fill-rule="evenodd" clip-rule="evenodd" d="M245.666 106.134C245.666 106.134 242.6 103.934 241.266 102.867C239.933 101.8 237 99.7337 233.8 100.934C230.6 102.134 228.333 104.467 228.333 104.467C228.333 104.467 230.666 110.067 236.2 110.934C241.8 111.867 245.666 106.134 245.666 106.134Z" fill="#35974A"/>
<path fill-rule="evenodd" clip-rule="evenodd" d="M272.2 128.468C271.4 126.934 269.533 123.668 266 123.468C262.467 123.268 259.333 124.468 259.333 124.468C259.333 124.468 259.2 130.734 264 133.934C268.8 137.134 274.933 133.468 274.933 133.468C274.933 133.468 273 130.001 272.2 128.468Z" fill="#35974A"/>
<path fill-rule="evenodd" clip-rule="evenodd" d="M234.066 122.201C230.733 119.668 226.8 118.734 226.8 118.734C226.8 118.734 222.466 124.868 225.133 131.201C227.8 137.534 236.333 138.001 236.333 138.001C236.333 138.001 236.666 133.401 236.866 131.268C237.133 129.201 237.4 124.734 234.066 122.201Z" fill="#35974A"/>
<path fill-rule="evenodd" clip-rule="evenodd" d="M231.2 192.465C225.133 185.065 209.533 173.065 209.533 166.865V143.198H212.8C213.533 143.198 214.133 142.598 214.133 141.865V138.798C214.133 138.065 213.533 137.465 212.8 137.465H184.733C184 137.465 183.4 138.065 183.4 138.798V141.865C183.4 142.598 184 143.198 184.733 143.198H188.066V166.865C188.066 173.065 172.466 185.065 166.4 192.465C160.333 199.865 152.8 207.532 152.8 218.798C152.8 230.065 163.533 235.798 176.066 235.798H221.533C234.133 235.798 244.8 229.998 244.8 218.798C244.866 207.532 237.266 199.865 231.2 192.465Z" fill="#2A337B"/>
<path fill-rule="evenodd" clip-rule="evenodd" d="M270.067 110.001C270.067 110.001 265.6 108.734 263.6 108.067C261.6 107.401 257.333 106.201 254.133 108.934C250.933 111.667 249.267 115.334 249.267 115.334C249.267 115.334 254.333 120.801 261.133 119.534C267.933 118.267 270.067 110.001 270.067 110.001Z" fill="#35974A"/>
<path fill-rule="evenodd" clip-rule="evenodd" d="M252.4 99.6668C259.133 98.4001 261.333 90.1335 261.333 90.1335C261.333 90.1335 256.867 88.8668 254.867 88.2001C252.867 87.5335 248.6 86.3335 245.4 89.0668C242.2 91.8001 240.533 95.4668 240.533 95.4668C240.533 95.4668 245.6 100.933 252.4 99.6668Z" fill="#35974A"/>
<path fill-rule="evenodd" clip-rule="evenodd" d="M251 124.667C247.667 123.001 244.134 122.801 244.134 122.801C244.134 122.801 241.333 128.734 244.6 133.801C247.867 138.867 255.4 138.001 255.4 138.001C255.4 138.001 254.933 134.001 254.867 132.134C254.8 130.267 254.333 126.401 251 124.667Z" fill="#35974A"/>
<path fill-rule="evenodd" clip-rule="evenodd" d="M240.067 88.6664C242.334 86.5997 241.867 83.3997 241.534 81.8664C241.2 80.3997 240.734 77.0664 240.734 77.0664C240.734 77.0664 234.6 77.9331 233.134 82.7331C231.6 87.5331 235.067 91.6664 235.067 91.6664C235.067 91.6664 237.8 90.7331 240.067 88.6664Z" fill="#35974A"/>
<path fill-rule="evenodd" clip-rule="evenodd" d="M229.133 91.5315C231.067 88.1982 229.267 84.5315 228.333 82.8648C227.4 81.1982 225.533 77.4648 225.533 77.4648C225.533 77.4648 218.533 80.8648 218.533 87.1315C218.533 93.3982 224.267 96.9982 224.267 96.9982C224.267 96.9982 227.2 94.8648 229.133 91.5315Z" fill="#35974A"/>
<path fill-rule="evenodd" clip-rule="evenodd" d="M210.267 87.4648C210.267 87.4648 204.667 90.8648 205.2 96.1315C205.733 101.398 210.867 103.932 210.867 103.932C210.867 103.932 213.2 101.932 214.533 98.9315C215.867 95.9982 214.067 93.0648 213.133 91.7315C212.133 90.4648 210.267 87.4648 210.267 87.4648Z" fill="#35974A"/>
<path fill-rule="evenodd" clip-rule="evenodd" d="M200.933 99.5312C200.933 99.5312 194.4 100.065 192.533 104.998C190.667 109.931 194.067 114.531 194.067 114.531C194.067 114.531 197 113.731 199.533 111.731C202.067 109.665 201.733 106.265 201.533 104.665C201.267 103.131 200.933 99.5312 200.933 99.5312Z" fill="#35974A"/>
<path fill-rule="evenodd" clip-rule="evenodd" d="M176.933 111.867C174.933 109.333 171.533 109.533 169.933 109.733C168.333 109.933 164.8 110.2 164.8 110.2C164.8 110.2 165.2 116.733 170.066 118.733C174.933 120.733 179.6 117.4 179.6 117.4C179.6 117.4 178.866 114.4 176.933 111.867Z" fill="#35974A"/>
<path fill-rule="evenodd" clip-rule="evenodd" d="M178.533 122.798C175.533 124.132 174.933 127.532 174.8 129.132C174.6 130.732 174 134.265 174 134.265C174 134.265 180.467 135.465 183.6 131.198C186.733 126.932 184.6 121.532 184.6 121.532C184.6 121.532 181.533 121.465 178.533 122.798Z" fill="#35974A"/>
<path fill-rule="evenodd" clip-rule="evenodd" d="M182.4 98.0664C182.4 98.0664 177.334 102.333 178.667 107.533C180 112.733 185.467 114.533 185.467 114.533C185.467 114.533 187.467 112.133 188.334 109C189.2 105.8 187 103.2 185.867 102C184.734 100.8 182.4 98.0664 182.4 98.0664Z" fill="#35974A"/>
<path fill-rule="evenodd" clip-rule="evenodd" d="M245.666 106.134C245.666 106.134 242.6 103.934 241.266 102.867C239.933 101.8 237 99.7337 233.8 100.934C230.6 102.134 228.333 104.467 228.333 104.467C228.333 104.467 230.666 110.067 236.2 110.934C241.8 111.867 245.666 106.134 245.666 106.134Z" fill="#35974A"/>
<path fill-rule="evenodd" clip-rule="evenodd" d="M272.2 128.468C271.4 126.934 269.533 123.668 266 123.468C262.467 123.268 259.333 124.468 259.333 124.468C259.333 124.468 259.2 130.734 264 133.934C268.8 137.134 274.933 133.468 274.933 133.468C274.933 133.468 273 130.001 272.2 128.468Z" fill="#35974A"/>
<path fill-rule="evenodd" clip-rule="evenodd" d="M234.066 122.201C230.733 119.668 226.8 118.734 226.8 118.734C226.8 118.734 222.466 124.868 225.133 131.201C227.8 137.534 236.333 138.001 236.333 138.001C236.333 138.001 236.666 133.401 236.866 131.268C237.133 129.201 237.4 124.734 234.066 122.201Z" fill="#35974A"/>
<path d="M51.2666 290.999V239.133H63.3333C69.6666 239.133 75.3999 241.666 75.3999 249.599V260.199C75.3999 268.133 69.6666 270.666 63.3333 270.666H61.5333V290.933H51.2666V290.999ZM61.5333 263.333H62.7999C64.4666 263.333 65.1999 262.533 65.1999 260.066V249.866C65.1999 247.399 64.4666 246.599 62.7999 246.599H61.5333V263.333Z" fill="#2A337B"/>
<path d="M79.8662 290.999V239.133H89.1329V252.999H89.4662C89.7995 250.466 93.0662 248.866 95.5329 248.866C101.4 248.866 101.666 253.133 101.666 257.999V291.066H92.3995V258.666C92.3995 257.666 91.9329 256.466 90.7329 256.466C89.4662 256.466 89.1329 257.599 89.1329 258.666V291.066H79.8662V290.999Z" fill="#2A337B"/>
<path d="M105.934 258.267C105.934 252.001 110.867 248.867 116.8 248.867C122.6 248.867 127.734 252.001 127.734 258.267V282.601C127.734 285.534 128.2 288.267 128.4 291.067H119L118.467 286.867H118.334C117.067 290.201 114.867 291.601 112.134 291.601C107.467 291.601 105.934 288.801 105.934 284.067V275.134C105.934 264.667 118.467 268.667 118.467 259.601V257.934C118.467 256.934 118 255.734 116.8 255.734C115.534 255.734 115.2 256.867 115.2 257.934V263.934H105.934V258.267ZM115.2 282.467C115.2 283.467 115.534 284.667 116.8 284.667C118.067 284.667 118.467 283.534 118.467 282.467V270.467L116.8 271.601C115.467 272.734 115.2 273.067 115.2 274.867V282.467Z" fill="#2A337B"/>
<path d="M141.267 252.934H141.4C142.8 250.401 144.8 248.867 148 248.867C152.6 248.867 153.733 251.667 153.733 256.134V271.801H144.467V258.601C144.467 257.601 144 256.401 142.8 256.401C141.533 256.401 141.2 257.534 141.2 258.601V291.001H132V249.334H141.267V252.934Z" fill="#2A337B"/>
<path d="M167.133 253.067H167.266C168.733 250.267 169.733 248.867 173.466 248.867C176.733 248.867 178.333 249.801 179.466 253.134C181.066 250.334 182.066 248.867 185.8 248.867C191.6 248.867 192.2 253.467 192.2 256.601V291.067H182.933V258.667C182.933 257.667 182.466 256.467 181.266 256.467C180.066 256.467 179.666 257.601 179.666 258.667V291.067H170.4V258.667C170.4 257.667 169.933 256.467 168.733 256.467C167.533 256.467 167.133 257.601 167.133 258.667V291.067H157.866V249.334H167.133V253.067Z" fill="#2A337B"/>
<path d="M196.333 258.267C196.333 252.001 201.267 248.867 207.2 248.867C213 248.867 218.133 252.001 218.133 258.267V282.601C218.133 285.534 218.6 288.267 218.8 291.067H209.333L208.8 286.867H208.667C207.4 290.201 205.2 291.601 202.467 291.601C197.8 291.601 196.267 288.801 196.267 284.067V275.134C196.267 264.667 208.8 268.667 208.8 259.601V257.934C208.8 256.934 208.333 255.734 207.133 255.734C205.867 255.734 205.533 256.867 205.533 257.934V263.934H196.267V258.267H196.333ZM205.533 282.467C205.533 283.467 205.867 284.667 207.133 284.667C208.4 284.667 208.8 283.534 208.8 282.467V270.467L207.133 271.601C205.8 272.734 205.533 273.067 205.533 274.867V282.467Z" fill="#2A337B"/>
<path d="M231.8 253.734H231.933C232.533 250.801 234.867 248.867 237.6 248.867C243.333 248.867 244.267 253.534 244.267 258.201V282.467C244.267 287.134 243.333 291.601 237.6 291.601C234.8 291.601 232.533 289.867 231.933 287.467H231.8V300.401H222.533V249.334H231.8V253.734ZM235.067 258.601C235.067 257.601 234.6 256.401 233.4 256.401C232.133 256.401 231.8 257.534 231.8 258.601V281.734C231.8 282.734 232.133 283.934 233.4 283.934C234.667 283.934 235.067 282.801 235.067 281.734V258.601Z" fill="#2A337B"/>
<path d="M248.667 290.999V239.133H257.934V290.999H248.667Z" fill="#2A337B"/>
<path d="M262.467 258.267C262.467 252.001 267.4 248.867 273.333 248.867C279.133 248.867 284.267 252.001 284.267 258.267V282.601C284.267 285.534 284.733 288.267 284.933 291.067H275.533L275 286.867H274.867C273.6 290.201 271.4 291.601 268.667 291.601C264 291.601 262.467 288.801 262.467 284.067V275.134C262.467 264.667 275 268.667 275 259.601V257.934C275 256.934 274.533 255.734 273.333 255.734C272.067 255.734 271.733 256.867 271.733 257.934V263.934H262.467V258.267ZM271.667 282.467C271.667 283.467 272 284.667 273.267 284.667C274.533 284.667 274.933 283.534 274.933 282.467V270.467L273.267 271.601C271.933 272.734 271.667 273.067 271.667 274.867V282.467Z" fill="#2A337B"/>
<path d="M297.733 253.001H297.867C298.467 250.467 301.667 248.867 304.133 248.867C310 248.867 310.267 253.134 310.267 258.001V291.067H301V258.667C301 257.667 300.533 256.467 299.333 256.467C298.067 256.467 297.733 257.601 297.733 258.667V291.067H288.467V249.334H297.733V253.001Z" fill="#2A337B"/>
<path d="M325.267 249.334H327.8V256.201H325.267V281.334C325.267 282.668 325.467 284.201 326.867 284.201H327.933V291.068H323.8C317.2 291.068 316 289.001 316 282.601V256.268H313.533V249.334H316V241.734H325.267V249.334Z" fill="#2A337B"/>
<path d="M330.4 249.401C330.4 243.934 334.734 240.801 339.334 240.801C343.934 240.801 348.267 243.934 348.267 249.401C348.267 254.867 343.934 258.001 339.334 258.001C334.734 258.001 330.4 254.867 330.4 249.401ZM339.334 242.934C335.934 242.934 333.2 245.534 333.2 249.401C333.2 253.267 335.934 255.867 339.334 255.867C342.667 255.867 345.467 253.201 345.467 249.401C345.467 245.534 342.667 242.934 339.334 242.934ZM338 254.067H335.867V244.667H339.334C341.8 244.667 343.267 245.334 343.267 247.534C343.267 249.267 342.267 249.934 340.6 250.001L343 254.067H340.867L338.734 250.201H338V254.067ZM339.734 248.467C340.534 248.467 341 248.267 341 247.334C341 246.401 339.934 246.401 339.267 246.401H337.934V248.534H339.734V248.467Z" fill="#2A337B"/>
<path d="M97.4663 315.198L99.7997 315.932C99.4663 317.265 98.8663 318.198 97.9997 318.865C97.133 319.532 96.133 319.798 94.7997 319.798C93.1997 319.798 91.8663 319.265 90.8663 318.198C89.8663 317.132 89.333 315.598 89.333 313.732C89.333 311.732 89.8663 310.198 90.8663 309.065C91.8663 307.932 93.2663 307.398 94.933 307.398C96.3997 307.398 97.5997 307.865 98.533 308.732C99.0663 309.265 99.4663 309.998 99.733 310.932L97.333 311.532C97.1997 310.932 96.8663 310.398 96.4663 310.065C95.9997 309.732 95.4663 309.532 94.7997 309.532C93.933 309.532 93.1997 309.865 92.6663 310.465C92.133 311.132 91.8663 312.132 91.8663 313.598C91.8663 315.132 92.133 316.198 92.6663 316.865C93.1997 317.532 93.933 317.798 94.7997 317.798C95.4663 317.798 95.9997 317.598 96.4663 317.198C96.933 316.665 97.2663 316.065 97.4663 315.198Z" fill="black"/>
<path d="M103.066 313.531L101 313.131C101.266 312.264 101.666 311.664 102.2 311.264C102.8 310.864 103.6 310.664 104.733 310.664C105.733 310.664 106.533 310.797 107 310.997C107.533 311.264 107.866 311.531 108.066 311.931C108.266 312.331 108.4 312.997 108.4 313.997V316.664C108.4 317.397 108.466 317.997 108.533 318.331C108.6 318.664 108.733 319.064 108.933 319.464H106.666C106.6 319.331 106.533 319.064 106.466 318.797C106.4 318.664 106.4 318.597 106.4 318.531C106 318.931 105.6 319.197 105.133 319.397C104.666 319.597 104.2 319.664 103.733 319.664C102.866 319.664 102.133 319.397 101.6 318.931C101.066 318.464 100.8 317.864 100.8 317.064C100.8 316.597 100.933 316.131 101.133 315.731C101.4 315.331 101.666 315.064 102.133 314.864C102.533 314.664 103.133 314.464 103.933 314.331C105 314.131 105.733 313.931 106.2 313.797V313.597C106.2 313.131 106.066 312.864 105.866 312.664C105.666 312.464 105.266 312.397 104.6 312.397C104.2 312.397 103.866 312.464 103.666 312.664C103.4 312.864 103.2 313.131 103.066 313.531ZM106.133 315.397C105.866 315.464 105.4 315.597 104.733 315.731C104.066 315.864 103.666 315.997 103.466 316.131C103.133 316.331 103 316.597 103 316.931C103 317.264 103.133 317.531 103.333 317.797C103.6 318.064 103.866 318.131 104.266 318.131C104.666 318.131 105.066 317.997 105.466 317.731C105.733 317.531 105.933 317.264 106 316.997C106.066 316.797 106.066 316.397 106.066 315.864V315.397H106.133Z" fill="black"/>
<path d="M109.333 317.131L111.666 316.797C111.733 317.264 111.933 317.597 112.266 317.797C112.6 317.997 113 318.131 113.533 318.131C114.133 318.131 114.6 317.997 114.866 317.797C115.066 317.664 115.2 317.464 115.2 317.197C115.2 316.997 115.133 316.864 115.066 316.731C114.933 316.597 114.666 316.531 114.266 316.397C112.4 315.997 111.266 315.597 110.733 315.264C110.066 314.797 109.733 314.131 109.733 313.331C109.733 312.597 110 311.931 110.6 311.464C111.2 310.931 112.133 310.664 113.333 310.664C114.533 310.664 115.4 310.864 116 311.264C116.6 311.664 117 312.197 117.2 312.997L115 313.397C114.933 313.064 114.733 312.797 114.466 312.597C114.2 312.397 113.866 312.331 113.333 312.331C112.733 312.331 112.266 312.397 112 312.597C111.8 312.731 111.733 312.864 111.733 313.064C111.733 313.197 111.8 313.397 111.933 313.464C112.133 313.597 112.866 313.864 114.066 314.131C115.266 314.397 116.133 314.731 116.6 315.131C117.066 315.531 117.333 316.131 117.333 316.864C117.333 317.664 117 318.331 116.333 318.931C115.666 319.531 114.666 319.797 113.4 319.797C112.2 319.797 111.266 319.531 110.6 319.064C110 318.597 109.533 317.931 109.333 317.131Z" fill="black"/>
<path d="M120.666 313.531L118.599 313.131C118.866 312.264 119.266 311.664 119.799 311.264C120.399 310.864 121.199 310.664 122.333 310.664C123.333 310.664 124.133 310.797 124.599 310.997C125.133 311.264 125.466 311.531 125.666 311.931C125.866 312.331 125.999 312.997 125.999 313.997V316.664C125.999 317.397 126.066 317.997 126.133 318.331C126.199 318.664 126.333 319.064 126.533 319.464H124.266C124.199 319.331 124.133 319.064 124.066 318.797C123.999 318.664 123.999 318.597 123.999 318.531C123.599 318.931 123.199 319.197 122.733 319.397C122.266 319.597 121.799 319.664 121.333 319.664C120.466 319.664 119.733 319.397 119.199 318.931C118.666 318.464 118.399 317.864 118.399 317.064C118.399 316.597 118.533 316.131 118.733 315.731C118.999 315.331 119.266 315.064 119.733 314.864C120.133 314.664 120.733 314.464 121.533 314.331C122.599 314.131 123.333 313.931 123.799 313.797V313.597C123.799 313.131 123.666 312.864 123.466 312.664C123.266 312.464 122.866 312.397 122.199 312.397C121.799 312.397 121.466 312.464 121.266 312.664C120.999 312.864 120.799 313.131 120.666 313.531ZM123.733 315.397C123.466 315.464 122.999 315.597 122.333 315.731C121.666 315.864 121.266 315.997 121.066 316.131C120.733 316.331 120.599 316.597 120.599 316.931C120.599 317.264 120.733 317.531 120.933 317.797C121.199 318.064 121.466 318.131 121.866 318.131C122.266 318.131 122.666 317.997 123.066 317.731C123.333 317.531 123.533 317.264 123.599 316.997C123.666 316.797 123.666 316.397 123.666 315.864V315.397H123.733Z" fill="black"/>
<path d="M139.8 319.598H137.666V318.331C137.333 318.798 136.866 319.198 136.4 319.464C135.933 319.731 135.4 319.798 134.933 319.798C133.933 319.798 133.066 319.398 132.4 318.598C131.733 317.798 131.333 316.664 131.333 315.198C131.333 313.731 131.666 312.598 132.4 311.864C133.066 311.131 134 310.731 135 310.731C136 310.731 136.8 311.131 137.533 311.931V307.598H139.8V319.598ZM133.666 315.064C133.666 315.998 133.8 316.664 134.066 317.064C134.466 317.664 134.933 317.931 135.6 317.931C136.133 317.931 136.6 317.731 136.933 317.264C137.333 316.798 137.466 316.131 137.466 315.264C137.466 314.264 137.266 313.531 136.933 313.131C136.6 312.664 136.133 312.464 135.533 312.464C135 312.464 134.533 312.664 134.133 313.131C133.733 313.598 133.666 314.198 133.666 315.064Z" fill="black"/>
<path d="M146.6 316.797L148.866 317.197C148.6 318.064 148.133 318.664 147.466 319.13C146.8 319.597 146.066 319.797 145.066 319.797C143.533 319.797 142.466 319.33 141.733 318.33C141.133 317.53 140.866 316.53 140.866 315.33C140.866 313.864 141.266 312.73 142 311.93C142.733 311.13 143.733 310.73 144.866 310.73C146.133 310.73 147.2 311.13 147.933 311.997C148.666 312.864 149.066 314.13 149 315.93H143.266C143.266 316.597 143.466 317.13 143.8 317.53C144.133 317.93 144.6 318.13 145.133 318.13C145.466 318.13 145.8 318.064 146.066 317.864C146.266 317.597 146.466 317.264 146.6 316.797ZM146.733 314.464C146.733 313.797 146.533 313.264 146.2 312.93C145.866 312.597 145.466 312.397 145 312.397C144.466 312.397 144.066 312.597 143.733 312.93C143.4 313.264 143.266 313.797 143.266 314.397H146.733V314.464Z" fill="black"/>
<path d="M154.467 319.598V307.598H159.533C160.8 307.598 161.733 307.731 162.333 307.931C162.933 308.131 163.4 308.531 163.733 309.064C164.067 309.598 164.267 310.264 164.267 310.931C164.267 311.798 164 312.598 163.467 313.131C162.933 313.731 162.133 314.064 161.067 314.264C161.6 314.598 162 314.931 162.333 315.264C162.667 315.598 163.133 316.264 163.733 317.198L165.2 319.531H162.333L160.6 316.931C160 315.998 159.533 315.398 159.333 315.198C159.133 314.931 158.867 314.798 158.6 314.731C158.333 314.664 157.933 314.598 157.4 314.598H156.933V319.598H154.467ZM156.867 312.664H158.667C159.8 312.664 160.533 312.598 160.867 312.531C161.133 312.464 161.4 312.264 161.533 311.998C161.667 311.731 161.8 311.464 161.8 311.131C161.8 310.731 161.667 310.398 161.467 310.131C161.267 309.864 160.933 309.731 160.533 309.664C160.333 309.664 159.733 309.598 158.733 309.598H156.867V312.664Z" fill="black"/>
<path d="M171.066 316.797L173.333 317.197C173.066 318.064 172.6 318.664 171.933 319.13C171.266 319.597 170.533 319.797 169.533 319.797C168 319.797 166.933 319.33 166.2 318.33C165.6 317.53 165.333 316.53 165.333 315.33C165.333 313.864 165.733 312.73 166.466 311.93C167.2 311.13 168.2 310.73 169.333 310.73C170.6 310.73 171.666 311.13 172.4 311.997C173.133 312.864 173.533 314.13 173.466 315.93H167.733C167.733 316.597 167.933 317.13 168.266 317.53C168.6 317.93 169.066 318.13 169.6 318.13C169.933 318.13 170.266 318.064 170.533 317.864C170.733 317.597 170.933 317.264 171.066 316.797ZM171.2 314.464C171.2 313.797 171 313.264 170.666 312.93C170.333 312.597 169.933 312.397 169.466 312.397C168.933 312.397 168.533 312.597 168.2 312.93C167.866 313.264 167.733 313.797 167.733 314.397H171.2V314.464Z" fill="black"/>
<path d="M174.733 310.864H176.867V312.131C177.133 311.664 177.533 311.331 178 311.064C178.467 310.797 179 310.664 179.6 310.664C180.6 310.664 181.467 311.064 182.2 311.864C182.933 312.664 183.267 313.731 183.267 315.197C183.267 316.664 182.933 317.797 182.2 318.597C181.467 319.397 180.6 319.797 179.6 319.797C179.133 319.797 178.667 319.731 178.267 319.531C177.867 319.331 177.467 318.997 177.067 318.531V322.931H174.8V310.864H174.733ZM177 315.064C177 316.064 177.2 316.731 177.6 317.197C178 317.664 178.467 317.864 179 317.864C179.533 317.864 180 317.664 180.333 317.197C180.667 316.797 180.867 316.064 180.867 315.064C180.867 314.131 180.667 313.464 180.333 313.064C180 312.597 179.533 312.397 179 312.397C178.467 312.397 178 312.597 177.6 313.064C177.2 313.597 177 314.264 177 315.064Z" fill="black"/>
<path d="M186.666 319.597H184.399V310.93H186.533V312.197C186.866 311.597 187.199 311.197 187.533 311.064C187.799 310.864 188.133 310.797 188.533 310.797C189.066 310.797 189.533 310.93 190.066 311.264L189.333 313.264C188.933 312.997 188.599 312.864 188.266 312.864C187.933 312.864 187.666 312.93 187.466 313.13C187.266 313.33 187.066 313.597 186.933 314.064C186.799 314.53 186.733 315.53 186.733 316.997V319.597H186.666Z" fill="black"/>
<path d="M195.533 316.797L197.8 317.197C197.533 318.064 197.066 318.664 196.4 319.13C195.733 319.597 195 319.797 194 319.797C192.466 319.797 191.4 319.33 190.666 318.33C190.066 317.53 189.8 316.53 189.8 315.33C189.8 313.864 190.2 312.73 190.933 311.93C191.666 311.13 192.666 310.73 193.8 310.73C195.066 310.73 196.133 311.13 196.866 311.997C197.6 312.864 198 314.13 197.933 315.93H192.2C192.2 316.597 192.4 317.13 192.733 317.53C193.066 317.93 193.533 318.13 194.066 318.13C194.4 318.13 194.733 318.064 195 317.864C195.2 317.597 195.4 317.264 195.533 316.797ZM195.666 314.464C195.666 313.797 195.466 313.264 195.133 312.93C194.8 312.597 194.4 312.397 193.933 312.397C193.4 312.397 193 312.597 192.666 312.93C192.333 313.264 192.2 313.797 192.2 314.397H195.666V314.464Z" fill="black"/>
<path d="M198.467 317.131L200.8 316.797C200.867 317.264 201.067 317.597 201.4 317.797C201.733 317.997 202.133 318.131 202.667 318.131C203.267 318.131 203.733 317.997 204 317.797C204.2 317.664 204.333 317.464 204.333 317.197C204.333 316.997 204.267 316.864 204.2 316.731C204.067 316.597 203.8 316.531 203.4 316.397C201.533 315.997 200.4 315.597 199.867 315.264C199.2 314.797 198.867 314.131 198.867 313.331C198.867 312.597 199.133 311.931 199.733 311.464C200.333 310.931 201.267 310.664 202.467 310.664C203.667 310.664 204.533 310.864 205.133 311.264C205.733 311.664 206.133 312.197 206.333 312.997L204.133 313.397C204.067 313.064 203.867 312.797 203.6 312.597C203.333 312.397 203 312.331 202.467 312.331C201.867 312.331 201.4 312.397 201.133 312.597C200.933 312.731 200.867 312.864 200.867 313.064C200.867 313.197 200.933 313.397 201.067 313.464C201.267 313.597 202 313.864 203.2 314.131C204.4 314.397 205.267 314.731 205.733 315.131C206.2 315.531 206.467 316.131 206.467 316.864C206.467 317.664 206.133 318.331 205.467 318.931C204.8 319.531 203.8 319.797 202.533 319.797C201.333 319.797 200.4 319.531 199.733 319.064C199.133 318.597 198.667 317.931 198.467 317.131Z" fill="black"/>
<path d="M213.066 316.797L215.333 317.197C215.066 318.064 214.6 318.664 213.933 319.13C213.266 319.597 212.533 319.797 211.533 319.797C210 319.797 208.933 319.33 208.2 318.33C207.6 317.53 207.333 316.53 207.333 315.33C207.333 313.864 207.733 312.73 208.466 311.93C209.2 311.13 210.2 310.73 211.333 310.73C212.6 310.73 213.666 311.13 214.4 311.997C215.133 312.864 215.533 314.13 215.466 315.93H209.733C209.733 316.597 209.933 317.13 210.266 317.53C210.6 317.93 211.066 318.13 211.6 318.13C211.933 318.13 212.266 318.064 212.533 317.864C212.8 317.597 212.933 317.264 213.066 316.797ZM213.2 314.464C213.2 313.797 213 313.264 212.666 312.93C212.333 312.597 211.933 312.397 211.466 312.397C210.933 312.397 210.533 312.597 210.2 312.93C209.866 313.264 209.733 313.797 209.733 314.397H213.2V314.464Z" fill="black"/>
<path d="M224.733 319.597H222.466V315.13C222.466 314.197 222.4 313.597 222.333 313.33C222.266 313.064 222.066 312.864 221.866 312.664C221.666 312.53 221.4 312.464 221.066 312.464C220.666 312.464 220.333 312.597 220 312.797C219.666 312.997 219.466 313.33 219.333 313.664C219.2 313.997 219.133 314.664 219.133 315.664V319.597H216.866V310.93H219V312.197C219.733 311.197 220.733 310.73 221.866 310.73C222.4 310.73 222.866 310.797 223.266 310.997C223.666 311.197 224 311.397 224.2 311.664C224.4 311.93 224.533 312.264 224.666 312.597C224.8 312.93 224.8 313.464 224.8 314.13V319.597H224.733Z" fill="black"/>
<path d="M230.533 310.867V312.667H228.933V316.2C228.933 316.934 228.933 317.334 229 317.467C229 317.6 229.066 317.667 229.2 317.734C229.333 317.8 229.466 317.867 229.6 317.867C229.8 317.867 230.133 317.8 230.533 317.667L230.733 319.467C230.2 319.667 229.6 319.8 228.933 319.8C228.533 319.8 228.133 319.734 227.8 319.6C227.466 319.467 227.2 319.267 227.066 319.067C226.933 318.867 226.8 318.534 226.733 318.2C226.666 317.934 226.666 317.4 226.666 316.6V312.8H225.6V311H226.666V309.267L229 307.934V311H230.533V310.867Z" fill="black"/>
<path d="M233.267 313.531L231.2 313.131C231.467 312.264 231.867 311.664 232.4 311.264C233 310.864 233.8 310.664 234.933 310.664C235.933 310.664 236.733 310.797 237.2 310.997C237.667 311.197 238.067 311.531 238.267 311.931C238.467 312.331 238.6 312.997 238.6 313.997V316.664C238.6 317.397 238.667 317.997 238.733 318.331C238.8 318.664 238.933 319.064 239.133 319.464H236.867C236.8 319.331 236.733 319.064 236.667 318.797C236.6 318.664 236.6 318.597 236.6 318.531C236.2 318.931 235.8 319.197 235.333 319.397C234.867 319.597 234.4 319.664 233.933 319.664C233.067 319.664 232.333 319.397 231.8 318.931C231.267 318.464 231 317.864 231 317.064C231 316.597 231.133 316.131 231.333 315.731C231.6 315.331 231.867 315.064 232.333 314.864C232.733 314.664 233.333 314.464 234.133 314.331C235.2 314.131 235.933 313.931 236.4 313.797V313.597C236.4 313.131 236.267 312.864 236.067 312.664C235.867 312.464 235.467 312.397 234.8 312.397C234.4 312.397 234.067 312.464 233.867 312.664C233.6 312.864 233.467 313.131 233.267 313.531ZM236.4 315.397C236.133 315.464 235.667 315.597 235 315.731C234.333 315.864 233.933 315.997 233.733 316.131C233.4 316.331 233.267 316.597 233.267 316.931C233.267 317.264 233.4 317.531 233.6 317.797C233.867 318.064 234.133 318.131 234.533 318.131C234.933 318.131 235.333 317.997 235.733 317.731C236 317.531 236.2 317.264 236.267 316.997C236.333 316.797 236.333 316.397 236.333 315.864V315.397H236.4Z" fill="black"/>
<path d="M247.933 313.464L245.666 313.864C245.6 313.397 245.4 313.064 245.133 312.864C244.866 312.664 244.533 312.53 244.066 312.53C243.466 312.53 243.066 312.73 242.666 313.13C242.333 313.53 242.133 314.197 242.133 315.13C242.133 316.13 242.333 316.864 242.666 317.33C243 317.797 243.466 317.997 244.066 317.997C244.533 317.997 244.866 317.864 245.133 317.597C245.4 317.33 245.6 316.93 245.733 316.33L248 316.73C247.733 317.797 247.333 318.53 246.666 319.064C246 319.597 245.133 319.864 244 319.864C242.733 319.864 241.733 319.464 240.933 318.664C240.133 317.864 239.8 316.73 239.8 315.33C239.8 313.864 240.2 312.797 240.933 311.997C241.666 311.197 242.733 310.797 244 310.797C245.066 310.797 245.866 310.997 246.533 311.464C247.2 311.864 247.666 312.53 247.933 313.464Z" fill="black"/>
<path d="M249.133 309.731V307.598H251.399V309.731H249.133ZM249.133 319.598V310.931H251.399V319.598H249.133Z" fill="black"/>
<path d="M252.733 315.132C252.733 314.399 252.933 313.599 253.267 312.932C253.667 312.199 254.2 311.665 254.867 311.265C255.533 310.865 256.333 310.732 257.2 310.732C258.533 310.732 259.6 311.132 260.4 311.999C261.267 312.865 261.667 313.932 261.667 315.265C261.667 316.599 261.267 317.665 260.4 318.532C259.533 319.399 258.467 319.799 257.2 319.799C256.4 319.799 255.667 319.599 254.933 319.265C254.2 318.932 253.667 318.399 253.267 317.665C252.867 316.932 252.733 316.132 252.733 315.132ZM255.067 315.265C255.067 316.132 255.267 316.799 255.667 317.265C256.067 317.732 256.6 317.932 257.2 317.932C257.8 317.932 258.333 317.732 258.733 317.265C259.133 316.799 259.333 316.132 259.333 315.265C259.333 314.399 259.133 313.732 258.733 313.332C258.333 312.932 257.8 312.665 257.2 312.665C256.6 312.665 256.067 312.865 255.667 313.332C255.267 313.732 255.067 314.399 255.067 315.265ZM256.067 309.799L257.2 307.332H259.8L257.533 309.799H256.067Z" fill="black"/>
<path d="M270.867 319.597H268.6V315.13C268.6 314.197 268.533 313.597 268.467 313.33C268.4 313.064 268.2 312.864 268 312.664C267.8 312.53 267.533 312.464 267.2 312.464C266.8 312.464 266.467 312.597 266.133 312.797C265.8 312.997 265.6 313.33 265.467 313.664C265.333 313.997 265.267 314.664 265.267 315.664V319.597H263V310.93H265.133V312.197C265.867 311.197 266.867 310.73 268 310.73C268.533 310.73 269 310.797 269.4 310.997C269.8 311.197 270.133 311.397 270.333 311.664C270.533 311.93 270.667 312.264 270.8 312.597C270.933 312.93 270.933 313.464 270.933 314.13V319.597H270.867Z" fill="black"/>
<path d="M272.6 317.266H274.866V318.932C274.866 319.599 274.8 320.132 274.666 320.532C274.533 320.932 274.333 321.266 274 321.599C273.666 321.932 273.266 322.132 272.8 322.332L272.333 321.399C272.8 321.266 273.133 321.066 273.333 320.799C273.533 320.532 273.666 320.199 273.666 319.732H272.533V317.266H272.6Z" fill="black"/>
<path d="M288.6 315.198L290.933 315.932C290.6 317.265 290 318.198 289.133 318.865C288.267 319.532 287.267 319.798 285.933 319.798C284.333 319.798 283 319.265 282 318.198C281 317.132 280.467 315.598 280.467 313.732C280.467 311.732 281 310.198 282 309.065C283 307.932 284.4 307.398 286.067 307.398C287.533 307.398 288.733 307.865 289.667 308.732C290.2 309.265 290.6 309.998 290.867 310.932L288.467 311.532C288.333 310.932 288 310.398 287.6 310.065C287.2 309.732 286.6 309.532 285.933 309.532C285.067 309.532 284.333 309.865 283.8 310.465C283.267 311.132 283 312.132 283 313.598C283 315.132 283.267 316.198 283.8 316.865C284.333 317.532 285.067 317.798 285.933 317.798C286.6 317.798 287.133 317.598 287.6 317.198C288.067 316.665 288.4 316.065 288.6 315.198Z" fill="black"/>
<path d="M292.467 319.599V317.332H294.733V319.599H292.467Z" fill="black"/>
<path d="M307.4 319.598H304.733L303.667 316.864H298.867L297.867 319.598H295.267L299.933 307.598H302.467L307.4 319.598ZM303 314.864L301.333 310.398L299.733 314.864H303Z" fill="black"/>
<path d="M308.133 319.599V317.332H310.399V319.599H308.133Z" fill="black"/>
</svg>
